<mxfile host="app.diagrams.net" modified="2022-01-13T08:50:12.445Z" agent="5.0 (Windows NT 10.0; Win64; x64) AppleWebKit/537.36 (KHTML, like Gecko) Chrome/97.0.4692.71 Safari/537.36" etag="ZJXGZbtJ30-j1HK9wtoj" version="16.2.4" type="github">
  <diagram id="-JOhpaFIr6ul0aW_N_dZ" name="第 1 页">
    <mxGraphModel dx="1730" dy="965" grid="1" gridSize="10" guides="1" tooltips="1" connect="1" arrows="1" fold="1" page="1" pageScale="1" pageWidth="827" pageHeight="1169" math="0" shadow="0">
      <root>
        <mxCell id="0" />
        <mxCell id="1" parent="0" />
        <mxCell id="BcR8lCa2Gur--fkkyS4Y-107" value="" style="whiteSpace=wrap;html=1;fillColor=#FFE5DB;strokeColor=#D9D9D9;fontSize=18;fontStyle=1;fontColor=#143642;strokeWidth=2;" parent="1" vertex="1">
          <mxGeometry x="40" y="535" width="1120" height="80" as="geometry" />
        </mxCell>
        <mxCell id="BcR8lCa2Gur--fkkyS4Y-72" value="" style="whiteSpace=wrap;html=1;fontSize=18;fontStyle=1;strokeWidth=2;fillColor=#F2F2F2;strokeColor=#D9D9D9;" parent="1" vertex="1">
          <mxGeometry x="40" y="70" width="1120" height="340" as="geometry" />
        </mxCell>
        <mxCell id="BcR8lCa2Gur--fkkyS4Y-73" value="信息安全等级保护测评" style="whiteSpace=wrap;html=1;fillColor=none;strokeColor=none;fontStyle=1;fontSize=18;fontColor=#E66B0F;" parent="1" vertex="1">
          <mxGeometry x="481" y="70" width="238" height="40" as="geometry" />
        </mxCell>
        <mxCell id="BcR8lCa2Gur--fkkyS4Y-96" value="" style="whiteSpace=wrap;html=1;fillColor=#FFE5DB;strokeColor=#D9D9D9;fontSize=18;fontStyle=1;fontColor=#143642;strokeWidth=2;" parent="1" vertex="1">
          <mxGeometry x="53.5" y="313" width="1090" height="80" as="geometry" />
        </mxCell>
        <mxCell id="BcR8lCa2Gur--fkkyS4Y-97" value="技术要求" style="whiteSpace=wrap;html=1;fillColor=none;strokeColor=none;fontSize=18;fontStyle=1;fontColor=#E66B0F;" parent="1" vertex="1">
          <mxGeometry x="66.5" y="333" width="120" height="40" as="geometry" />
        </mxCell>
        <mxCell id="BcR8lCa2Gur--fkkyS4Y-98" value="&lt;span style=&quot;color: rgb(20 , 54 , 66)&quot;&gt;物理安全&lt;/span&gt;" style="whiteSpace=wrap;html=1;strokeColor=#BB5933;dashed=1;" parent="1" vertex="1">
          <mxGeometry x="233.5" y="333" width="150" height="40" as="geometry" />
        </mxCell>
        <mxCell id="BcR8lCa2Gur--fkkyS4Y-99" value="&lt;span style=&quot;color: rgb(20 , 54 , 66)&quot;&gt;网络安全&lt;/span&gt;" style="whiteSpace=wrap;html=1;strokeColor=#BB5933;dashed=1;" parent="1" vertex="1">
          <mxGeometry x="414" y="333" width="150" height="40" as="geometry" />
        </mxCell>
        <mxCell id="BcR8lCa2Gur--fkkyS4Y-100" value="&lt;span style=&quot;color: rgb(20 , 54 , 66)&quot;&gt;主机系统安全&lt;/span&gt;" style="whiteSpace=wrap;html=1;strokeColor=#BB5933;dashed=1;" parent="1" vertex="1">
          <mxGeometry x="595" y="333" width="150" height="40" as="geometry" />
        </mxCell>
        <mxCell id="BcR8lCa2Gur--fkkyS4Y-101" value="&lt;span style=&quot;color: rgb(20 , 54 , 66)&quot;&gt;应用安全&lt;/span&gt;" style="whiteSpace=wrap;html=1;strokeColor=#BB5933;dashed=1;" parent="1" vertex="1">
          <mxGeometry x="776" y="333" width="150" height="40" as="geometry" />
        </mxCell>
        <mxCell id="BcR8lCa2Gur--fkkyS4Y-102" value="&lt;span style=&quot;color: rgb(20 , 54 , 66)&quot;&gt;数据安全&lt;/span&gt;" style="whiteSpace=wrap;html=1;strokeColor=#BB5933;dashed=1;" parent="1" vertex="1">
          <mxGeometry x="957" y="333" width="150" height="40" as="geometry" />
        </mxCell>
        <mxCell id="BcR8lCa2Gur--fkkyS4Y-108" value="数据生命周期" style="whiteSpace=wrap;html=1;fillColor=none;strokeColor=none;fontSize=18;fontStyle=1;fontColor=#E66B0F;" parent="1" vertex="1">
          <mxGeometry x="59" y="555" width="120" height="40" as="geometry" />
        </mxCell>
        <mxCell id="BcR8lCa2Gur--fkkyS4Y-115" value="" style="whiteSpace=wrap;html=1;fillColor=#FFE5DB;strokeColor=#D9D9D9;fontSize=18;fontStyle=1;fontColor=#143642;strokeWidth=2;" parent="1" vertex="1">
          <mxGeometry x="53.5" y="224" width="1090" height="80" as="geometry" />
        </mxCell>
        <mxCell id="BcR8lCa2Gur--fkkyS4Y-116" value="管理要求" style="whiteSpace=wrap;html=1;fillColor=none;strokeColor=none;fontSize=18;fontStyle=1;fontColor=#E66B0F;" parent="1" vertex="1">
          <mxGeometry x="66.5" y="244" width="120" height="40" as="geometry" />
        </mxCell>
        <mxCell id="BcR8lCa2Gur--fkkyS4Y-117" value="&lt;span style=&quot;color: rgb(20 , 54 , 66)&quot;&gt;安全管理机构&lt;/span&gt;" style="whiteSpace=wrap;html=1;strokeColor=#BB5933;dashed=1;" parent="1" vertex="1">
          <mxGeometry x="230" y="244" width="150" height="40" as="geometry" />
        </mxCell>
        <mxCell id="BcR8lCa2Gur--fkkyS4Y-118" value="&lt;span style=&quot;color: rgb(20 , 54 , 66)&quot;&gt;安全管理制度&lt;/span&gt;" style="whiteSpace=wrap;html=1;strokeColor=#BB5933;dashed=1;" parent="1" vertex="1">
          <mxGeometry x="410.5" y="244" width="150" height="40" as="geometry" />
        </mxCell>
        <mxCell id="BcR8lCa2Gur--fkkyS4Y-119" value="&lt;span style=&quot;color: rgb(20 , 54 , 66)&quot;&gt;人员安全管理&lt;/span&gt;" style="whiteSpace=wrap;html=1;strokeColor=#BB5933;dashed=1;" parent="1" vertex="1">
          <mxGeometry x="591.5" y="244" width="150" height="40" as="geometry" />
        </mxCell>
        <mxCell id="BcR8lCa2Gur--fkkyS4Y-120" value="&lt;span style=&quot;color: rgb(20 , 54 , 66)&quot;&gt;系统建设管理&lt;/span&gt;" style="whiteSpace=wrap;html=1;strokeColor=#BB5933;dashed=1;" parent="1" vertex="1">
          <mxGeometry x="772.5" y="244" width="150" height="40" as="geometry" />
        </mxCell>
        <mxCell id="BcR8lCa2Gur--fkkyS4Y-121" value="&lt;span style=&quot;color: rgb(20 , 54 , 66)&quot;&gt;系统运维管理&lt;/span&gt;" style="whiteSpace=wrap;html=1;strokeColor=#BB5933;dashed=1;" parent="1" vertex="1">
          <mxGeometry x="953.5" y="244" width="150" height="40" as="geometry" />
        </mxCell>
        <mxCell id="BcR8lCa2Gur--fkkyS4Y-122" value="" style="whiteSpace=wrap;html=1;fillColor=#FFE5DB;strokeColor=#D9D9D9;fontSize=18;fontStyle=1;fontColor=#143642;strokeWidth=2;" parent="1" vertex="1">
          <mxGeometry x="53.5" y="135" width="1090" height="80" as="geometry" />
        </mxCell>
        <mxCell id="BcR8lCa2Gur--fkkyS4Y-123" value="三 要 素" style="whiteSpace=wrap;html=1;fillColor=none;strokeColor=none;fontSize=18;fontStyle=1;fontColor=#E66B0F;" parent="1" vertex="1">
          <mxGeometry x="66" y="155" width="120" height="40" as="geometry" />
        </mxCell>
        <mxCell id="BcR8lCa2Gur--fkkyS4Y-124" value="保密性Confidentiality" style="whiteSpace=wrap;html=1;strokeColor=#BB5933;dashed=1;" parent="1" vertex="1">
          <mxGeometry x="233" y="155" width="250" height="40" as="geometry" />
        </mxCell>
        <mxCell id="BcR8lCa2Gur--fkkyS4Y-126" value="完整性Integrity" style="whiteSpace=wrap;html=1;strokeColor=#BB5933;dashed=1;" parent="1" vertex="1">
          <mxGeometry x="544.5" y="155" width="250" height="40" as="geometry" />
        </mxCell>
        <mxCell id="BcR8lCa2Gur--fkkyS4Y-128" value="可用性Availability" style="whiteSpace=wrap;html=1;strokeColor=#BB5933;dashed=1;" parent="1" vertex="1">
          <mxGeometry x="856.5" y="155" width="250" height="40" as="geometry" />
        </mxCell>
        <mxCell id="BcR8lCa2Gur--fkkyS4Y-129" value="" style="whiteSpace=wrap;html=1;fillColor=#FFE5DB;strokeColor=#D9D9D9;fontSize=18;fontStyle=1;fontColor=#143642;strokeWidth=2;" parent="1" vertex="1">
          <mxGeometry x="39" y="440" width="1120" height="80" as="geometry" />
        </mxCell>
        <mxCell id="BcR8lCa2Gur--fkkyS4Y-130" value="数据安全风险" style="whiteSpace=wrap;html=1;fillColor=none;strokeColor=none;fontSize=18;fontStyle=1;fontColor=#E66B0F;" parent="1" vertex="1">
          <mxGeometry x="58" y="460" width="120" height="40" as="geometry" />
        </mxCell>
        <mxCell id="BcR8lCa2Gur--fkkyS4Y-132" value="数据泄露" style="whiteSpace=wrap;html=1;strokeColor=#BB5933;dashed=1;" parent="1" vertex="1">
          <mxGeometry x="414" y="460" width="150" height="40" as="geometry" />
        </mxCell>
        <mxCell id="BcR8lCa2Gur--fkkyS4Y-133" value="未授权访问" style="whiteSpace=wrap;html=1;strokeColor=#BB5933;dashed=1;" parent="1" vertex="1">
          <mxGeometry x="595" y="460" width="150" height="40" as="geometry" />
        </mxCell>
        <mxCell id="BcR8lCa2Gur--fkkyS4Y-134" value="数据篡改" style="whiteSpace=wrap;html=1;strokeColor=#BB5933;dashed=1;" parent="1" vertex="1">
          <mxGeometry x="776" y="460" width="150" height="40" as="geometry" />
        </mxCell>
        <mxCell id="BcR8lCa2Gur--fkkyS4Y-136" value="数据不可用" style="whiteSpace=wrap;html=1;strokeColor=#BB5933;dashed=1;" parent="1" vertex="1">
          <mxGeometry x="957" y="460" width="150" height="40" as="geometry" />
        </mxCell>
        <mxCell id="BcR8lCa2Gur--fkkyS4Y-254" value="数据合规" style="whiteSpace=wrap;html=1;strokeColor=#BB5933;dashed=1;" parent="1" vertex="1">
          <mxGeometry x="233.5" y="460" width="150" height="40" as="geometry" />
        </mxCell>
        <mxCell id="BcR8lCa2Gur--fkkyS4Y-255" value="采集" style="whiteSpace=wrap;html=1;strokeColor=#BB5933;dashed=1;" parent="1" vertex="1">
          <mxGeometry x="233" y="555" width="120" height="40" as="geometry" />
        </mxCell>
        <mxCell id="BcR8lCa2Gur--fkkyS4Y-256" value="传输" style="whiteSpace=wrap;html=1;strokeColor=#BB5933;dashed=1;" parent="1" vertex="1">
          <mxGeometry x="384" y="555" width="120" height="40" as="geometry" />
        </mxCell>
        <mxCell id="BcR8lCa2Gur--fkkyS4Y-257" value="存储" style="whiteSpace=wrap;html=1;strokeColor=#BB5933;dashed=1;" parent="1" vertex="1">
          <mxGeometry x="535" y="555" width="120" height="40" as="geometry" />
        </mxCell>
        <mxCell id="BcR8lCa2Gur--fkkyS4Y-258" value="处理使用" style="whiteSpace=wrap;html=1;strokeColor=#BB5933;dashed=1;" parent="1" vertex="1">
          <mxGeometry x="685" y="555" width="120" height="40" as="geometry" />
        </mxCell>
        <mxCell id="BcR8lCa2Gur--fkkyS4Y-259" value="交换" style="whiteSpace=wrap;html=1;strokeColor=#BB5933;dashed=1;" parent="1" vertex="1">
          <mxGeometry x="836" y="555" width="120" height="40" as="geometry" />
        </mxCell>
        <mxCell id="BcR8lCa2Gur--fkkyS4Y-260" value="销毁" style="whiteSpace=wrap;html=1;strokeColor=#BB5933;dashed=1;" parent="1" vertex="1">
          <mxGeometry x="987" y="555" width="120" height="40" as="geometry" />
        </mxCell>
      </root>
    </mxGraphModel>
  </diagram>
</mxfile>
